<svg width="76" height="76" viewBox="0 0 76 76" fill="none" xmlns="http://www.w3.org/2000/svg">
<path fill-rule="evenodd" clip-rule="evenodd" d="M37.7866 16.2918C32.3364 16.2918 26.8988 18.1501 22.4704 21.8659C19.8052 24.1023 17.7453 26.8235 16.3147 29.8033C16.1161 29.7844 15.9229 29.7414 15.7191 29.7414C12.1593 29.7414 9.29297 32.6076 9.29297 36.1673V44.1094C9.29297 47.6691 12.1593 50.5354 15.7191 50.5354C15.9229 50.5354 16.1161 50.4912 16.3147 50.4734C16.5708 51.0043 16.8358 51.5313 17.1345 52.0491C18.3022 54.133 21.4217 52.3488 20.2171 50.2857C15.285 41.7429 17.1951 30.9177 24.7514 24.5771C32.3079 18.2364 43.2838 18.2364 50.8402 24.5771C58.3967 30.9177 60.3068 41.7427 55.3746 50.2857L55.3214 50.3742L55.2859 50.4626C55.2859 50.4626 52.8904 54.7619 48.1866 54.7619L42.2324 54.7086C41.674 53.8932 40.7804 53.3253 39.7133 53.3253H35.8751C34.1541 53.3253 32.7697 54.7144 32.7697 56.4354C32.7697 57.4969 33.4433 58.303 34.9847 58.303L48.1866 58.3041C55.2453 58.3041 58.2981 52.3743 58.4371 52.0536V52.0347C58.7331 51.5215 58.9937 50.9945 59.2481 50.4683C59.4555 50.4872 59.6576 50.5303 59.8712 50.5303C63.431 50.5303 66.2973 47.6641 66.2973 44.1043V36.1622C66.2973 32.6025 63.431 29.7363 59.8712 29.7363C59.6655 29.7363 59.4714 29.7703 59.2711 29.7982C57.8439 26.8182 55.7901 24.0973 53.1245 21.8607C48.6963 18.145 43.2359 16.2866 37.7855 16.2866L37.7866 16.2918ZM32.0272 25.492C30.0625 26.253 27.3946 27.7841 26.2904 28.9469C23.346 32.0468 21.527 36.266 21.527 40.7592C21.527 44.4654 22.7656 48.6183 24.8522 48.7699C27.8248 48.9861 32.5157 47.034 37.7958 47.034C43.3912 47.034 48.3288 49.2243 51.257 48.7058C53.0316 48.3921 54.0692 44.1501 54.0692 40.7592C54.0692 36.266 52.2458 32.0468 49.3013 28.9469C46.3568 25.8469 42.0327 24.5771 37.5396 24.5771C34.7314 24.5771 33.1498 25.0572 32.0272 25.492ZM29.3822 35.2217C31.0236 35.2223 32.3542 36.5528 32.3547 38.1943C32.3542 39.8358 31.0236 41.1662 29.3822 41.1668C27.7407 41.1662 26.4101 39.8358 26.4096 38.1943C26.4101 36.5528 27.7407 35.2223 29.3822 35.2217ZM46.2098 35.2217C47.8513 35.2223 49.1818 36.5528 49.1824 38.1943C49.1818 39.8358 47.8513 41.1662 46.2098 41.1668C44.5683 41.1662 43.2378 39.8358 43.2372 38.1943C43.2378 36.5528 44.5683 35.2223 46.2098 35.2217Z" fill="#fff
"/>
</svg>
