<svg width="27" height="32" viewBox="0 0 27 32" fill="none" xmlns="http://www.w3.org/2000/svg">
<path d="M13.076 7.00025C12.3838 7.00025 11.7071 6.79498 11.1315 6.41039C10.556 6.02581 10.1074 5.47918 9.84246 4.83964C9.57755 4.2001 9.50824 3.49636 9.64329 2.81743C9.77834 2.1385 10.1117 1.51486 10.6012 1.02537C11.0906 0.535888 11.7143 0.202546 12.3932 0.0674972C13.0722 -0.0675511 13.7759 0.00176066 14.4154 0.266667C15.055 0.531574 15.6016 0.980178 15.9862 1.55575C16.3708 2.13132 16.576 2.80801 16.576 3.50025C16.575 4.4282 16.206 5.31786 15.5498 5.97402C14.8937 6.63019 14.004 6.99926 13.076 7.00025Z" fill="white"/>
<path d="M24.076 7.05025L24.0479 7.05775L24.0217 7.06587C23.9592 7.08337 23.8967 7.10212 23.8342 7.1215C22.671 7.46275 17.026 9.054 13.0492 9.054C9.35354 9.054 4.21916 7.679 2.57666 7.21212C2.41319 7.14892 2.24626 7.09508 2.07666 7.05087C0.889161 6.73837 0.0766602 7.94462 0.0766602 9.04712C0.0766602 10.139 1.05791 10.659 2.04854 11.0321V11.0496L7.99979 12.9084C8.60791 13.1415 8.77041 13.3796 8.84979 13.5859C9.10791 14.2478 8.90166 15.5584 8.82854 16.0159L8.46604 18.8284L6.45416 29.8403C6.44791 29.8703 6.44229 29.9009 6.43729 29.9321L6.42291 30.0115C6.27791 31.0209 7.01916 32.0003 8.42291 32.0003C9.64791 32.0003 10.1885 31.1546 10.4229 30.004C10.4229 30.004 12.1729 20.1559 13.0479 20.1559C13.9229 20.1559 15.7254 30.004 15.7254 30.004C15.9598 31.1546 16.5004 32.0003 17.7254 32.0003C19.1329 32.0003 19.8742 31.0165 19.7254 30.004C19.7123 29.9178 19.6967 29.8328 19.6779 29.7503L17.6385 18.8296L17.2767 16.0171C17.0148 14.379 17.2254 13.8378 17.2967 13.7109C17.2986 13.7079 17.3002 13.7048 17.3017 13.7015C17.3692 13.5765 17.6767 13.2965 18.3942 13.0271L23.9742 11.0765C24.0084 11.0674 24.0422 11.0565 24.0754 11.044C25.0754 10.669 26.0754 10.1502 26.0754 9.04837C26.0754 7.9465 25.2635 6.73837 24.076 7.05025Z" fill="#fff"/>
</svg>
