<svg width="175" height="32" viewBox="0 0 175 32" fill="none" xmlns="http://www.w3.org/2000/svg">
<path d="M22.5755 19.4049C21.9791 20.5237 21.1315 21.3869 20.0956 22.0902C19.0597 22.7615 17.8041 23.1132 16.2973 23.1132C15.2928 23.1132 14.3511 22.9213 13.4721 22.5697C12.6246 22.218 11.8712 21.7066 11.2434 21.0672C10.6156 20.4278 10.1133 19.6606 9.76802 18.7975C9.42272 17.9343 9.23438 16.9753 9.23438 15.9203C9.23438 14.9293 9.42272 14.0023 9.73663 13.1391C10.0819 12.276 10.5528 11.4768 11.1806 10.8374C11.777 10.1981 12.5304 9.68658 13.3466 9.30296C14.1941 8.91935 15.1359 8.72754 16.1404 8.72754C17.2077 8.72754 18.1808 8.91935 18.9656 9.271C19.8131 9.62264 20.4723 10.1341 21.0374 10.7735C21.6024 11.4129 22.0105 12.1801 22.293 13.0113C22.5755 13.8744 22.7325 14.8334 22.7325 15.8244V16.1441C22.7011 16.24 22.7011 16.3359 22.7011 16.4638C22.7325 16.5277 22.7325 16.6236 22.7325 16.7195H12.7188C12.7815 17.263 12.9385 17.7425 13.1896 18.1261C13.4408 18.5098 13.6919 18.8614 14.0372 19.1171C14.3511 19.3729 14.7592 19.5967 15.1359 19.6926C15.5439 19.8204 15.952 19.8844 16.3601 19.8844C17.1763 19.8844 17.8669 19.6926 18.4005 19.309C18.7144 19.1171 18.9656 18.8294 19.1853 18.5737C19.4992 18.1901 20.0328 18.0942 20.4723 18.286L22.5755 19.4049ZM19.3422 14.1621C19.3109 13.9383 19.2481 13.6506 19.1225 13.3629C18.9969 13.0752 18.8086 12.7875 18.5261 12.5317C18.275 12.276 17.9297 12.0522 17.553 11.8924C17.1763 11.7325 16.7054 11.6366 16.1718 11.6366C15.4184 11.6366 14.7592 11.8604 14.1627 12.308C13.5663 12.7555 13.1896 13.3629 12.9385 14.1621H19.3422Z" fill="#F0162D"/>
<path d="M54.9698 10.2295C54.5931 9.75 54.0908 9.36638 53.4944 9.11064C52.898 8.85489 52.2074 8.69505 51.3912 8.69505C50.2925 8.69505 49.3822 8.91883 48.6288 9.43032C47.8754 9.90984 47.279 10.5172 46.8395 11.1886C46.557 10.4853 46.0548 9.90984 45.3642 9.39835C44.6736 8.91883 43.826 8.66309 42.7901 8.66309C41.9425 8.66309 41.1578 8.85489 40.4044 9.27048C39.6824 9.68606 39.1488 10.1976 38.7093 10.8689H38.4895V10.1976C38.4895 9.59016 38.0187 9.11064 37.4223 9.11064H35.1621V22.6331H38.7407V16.1116C38.7407 15.5362 38.8035 14.9928 38.929 14.5132C39.0546 14.0337 39.2429 13.5862 39.4941 13.2345C39.7138 12.8829 40.0277 12.5952 40.3416 12.3714C40.6555 12.1796 41.0636 12.0517 41.5345 12.0517C43.0726 12.0517 43.8574 12.9788 43.8574 14.8009V22.6651H47.4046V16.1116C47.4046 15.5362 47.4673 14.9928 47.5929 14.5132C47.7185 14.0337 47.9068 13.5862 48.1579 13.2345C48.4091 12.8829 48.723 12.5952 49.0683 12.3714C49.4136 12.1796 49.8531 12.0517 50.3239 12.0517C51.7993 12.0517 52.5527 12.9788 52.5527 14.8009V22.6651H56.0999V14.1296C56.0999 13.3304 56.0057 12.5952 55.7859 11.9238C55.6604 11.2845 55.3465 10.6771 54.9698 10.2295Z" fill="#004DD9"/>
<path d="M70.447 10.709C69.8192 10.0697 69.0658 9.55819 68.2182 9.20654C67.3707 8.85489 66.4289 8.66309 65.393 8.66309C64.3571 8.66309 63.4154 8.85489 62.5679 9.20654C61.7203 9.55819 60.9669 10.0697 60.3391 10.709C59.7113 11.3484 59.209 12.1156 58.8637 12.9788C58.5184 13.8419 58.3301 14.8329 58.3301 15.8559C58.3301 16.9108 58.5184 17.8699 58.8637 18.733C59.209 19.5962 59.7113 20.3954 60.3391 21.0027C60.9669 21.6421 61.7203 22.1536 62.5679 22.5052C63.4154 22.8569 64.3571 23.0487 65.393 23.0487C66.4289 23.0487 67.3707 22.8569 68.2182 22.5052C69.0658 22.1536 69.8192 21.6421 70.447 21.0027C71.0748 20.3634 71.577 19.5962 71.9223 18.733C72.2676 17.8699 72.456 16.8789 72.456 15.8559C72.456 14.8009 72.2676 13.8419 71.9223 12.9788C71.5457 12.1156 71.0748 11.3484 70.447 10.709ZM68.5949 17.5182C68.4066 17.9978 68.124 18.3814 67.8101 18.733C67.4962 19.0527 67.0881 19.3404 66.6801 19.4683C66.2406 19.6601 65.8325 19.724 65.3616 19.724C64.8908 19.724 64.4513 19.6601 64.0432 19.4683C63.6351 19.2765 63.2585 19.0207 62.9132 18.733C62.5992 18.4133 62.3167 17.9978 62.1284 17.5182C61.94 17.0387 61.8459 16.4953 61.8459 15.8879C61.8459 15.2805 61.94 14.737 62.1284 14.2575C62.3167 13.778 62.5992 13.3944 62.9132 13.0427C63.2271 12.723 63.6038 12.4353 64.0432 12.3074C64.4513 12.1156 64.8908 12.0517 65.3616 12.0517C65.8325 12.0517 66.2406 12.1156 66.6801 12.3074C67.1195 12.4992 67.4962 12.755 67.8101 13.0427C68.124 13.3624 68.4066 13.778 68.5949 14.2575C68.7833 14.737 68.8774 15.2805 68.8774 15.8879C68.9088 16.5272 68.7833 17.0707 68.5949 17.5182Z" fill="#004DD9"/>
<path d="M85.8597 10.2617C85.4517 9.75026 84.918 9.36664 84.3216 9.1109C83.6938 8.82318 82.9404 8.69531 82.1242 8.69531C81.2139 8.69531 80.4291 8.88712 79.7071 9.3027C78.9851 9.68632 78.4515 10.2298 78.0434 10.9331H77.8237V10.2617C77.8237 9.65435 77.3528 9.17483 76.7564 9.17483H74.4648V22.6973H78.012V16.016C78.012 15.4725 78.0748 14.9291 78.2004 14.4815C78.3259 14.002 78.5143 13.5864 78.7968 13.2028C79.0479 12.8512 79.3932 12.5634 79.7385 12.3397C80.1152 12.1479 80.5547 12.02 81.0255 12.02C81.8417 12.02 82.4695 12.2438 82.8776 12.7233C83.3171 13.2028 83.5054 13.9061 83.5054 14.8971V22.6653H87.084V14.4815C87.084 13.6184 86.9898 12.8192 86.7701 12.1159C86.5817 11.4126 86.2678 10.7732 85.8597 10.2617Z" fill="#004DD9"/>
<path d="M99.6391 10.6134H99.4194C99.0113 10.006 98.4463 9.55845 97.7871 9.2068C97.0965 8.88712 96.3117 8.69531 95.37 8.69531C94.5852 8.69531 93.8004 8.85515 93.0471 9.17483C92.2937 9.49451 91.6345 9.97403 91.038 10.5814C90.4416 11.1888 90.0021 11.9241 89.6254 12.7872C89.2801 13.6504 89.0918 14.6094 89.0918 15.6643C89.0918 16.7193 89.2801 17.6783 89.6254 18.5415C89.9707 19.4046 90.473 20.1399 91.038 20.7473C91.6345 21.3547 92.2937 21.8342 93.0471 22.1539C93.8004 22.4735 94.5538 22.6334 95.37 22.6334C96.2803 22.6334 97.0965 22.4416 97.7871 22.1219C98.4777 21.8022 99.0113 21.3227 99.4194 20.7153H99.6391V21.6424C99.6391 22.9211 99.3252 23.976 98.666 24.7113C98.0068 25.4466 97.1279 25.8302 95.9978 25.8302C95.2758 25.8302 94.648 25.6384 94.0829 25.2228C93.7376 24.999 93.4551 24.6793 93.2354 24.3596C92.9529 23.9121 92.4192 23.7523 91.9484 23.9441L89.4685 24.9351C89.6254 25.4146 89.908 25.8941 90.2533 26.3736C90.5986 26.8532 91.0694 27.3007 91.6345 27.6843C92.1681 28.0679 92.7959 28.4196 93.5493 28.6434C94.2713 28.8991 95.1189 28.995 96.0606 28.995C97.0965 28.995 98.0696 28.8032 98.9172 28.4835C99.7647 28.1638 100.518 27.6524 101.115 27.013C101.711 26.3736 102.213 25.6064 102.558 24.6793C102.904 23.7842 103.061 22.7293 103.061 21.6104V9.14286H100.738C100.141 9.14286 99.6705 9.62239 99.6705 10.2298L99.6391 10.6134ZM99.3566 17.2947C99.1683 17.7742 98.8858 18.1578 98.5719 18.4456C98.2579 18.7652 97.8499 18.989 97.4418 19.1808C97.0023 19.3407 96.5942 19.4046 96.1548 19.4046C95.7153 19.4046 95.3072 19.3407 94.8991 19.1808C94.491 19.021 94.1143 18.7652 93.769 18.4456C93.4551 18.1259 93.1726 17.7423 92.9843 17.2947C92.7959 16.8152 92.6704 16.3037 92.6704 15.7283C92.6704 15.1529 92.7645 14.5774 92.9843 14.1299C93.1726 13.6504 93.4551 13.2667 93.769 12.9471C94.0829 12.6274 94.4596 12.3716 94.8991 12.2118C95.3072 12.052 95.7467 11.988 96.1548 11.988C96.5942 11.988 97.0023 12.052 97.4418 12.2118C97.8813 12.3716 98.2579 12.6274 98.5719 12.9471C98.8858 13.2667 99.1683 13.6504 99.3566 14.1299C99.545 14.6094 99.6705 15.1209 99.6705 15.7283C99.6391 16.2717 99.5764 16.8152 99.3566 17.2947Z" fill="#004DD9"/>
<path d="M117.312 10.709C116.684 10.0697 115.931 9.55819 115.083 9.20654C114.236 8.85489 113.294 8.66309 112.258 8.66309C111.222 8.66309 110.281 8.85489 109.433 9.20654C108.586 9.55819 107.832 10.0697 107.204 10.709C106.577 11.3484 106.074 12.1156 105.729 12.9788C105.384 13.8419 105.195 14.8329 105.195 15.8559C105.195 16.9108 105.384 17.8699 105.729 18.733C106.074 19.5962 106.577 20.3954 107.204 21.0027C107.832 21.6421 108.586 22.1536 109.433 22.5052C110.281 22.8569 111.222 23.0487 112.258 23.0487C113.294 23.0487 114.236 22.8569 115.083 22.5052C115.931 22.1536 116.684 21.6421 117.312 21.0027C117.94 20.3634 118.442 19.5962 118.788 18.733C119.133 17.8699 119.321 16.8789 119.321 15.8559C119.321 14.8009 119.133 13.8419 118.788 12.9788C118.442 12.1156 117.94 11.3484 117.312 10.709ZM115.46 17.5182C115.272 17.9978 114.989 18.3814 114.707 18.733C114.393 19.0527 113.985 19.3404 113.577 19.4683C113.137 19.6601 112.729 19.724 112.258 19.724C111.787 19.724 111.348 19.6601 110.94 19.4683C110.532 19.2765 110.155 19.0207 109.81 18.733C109.496 18.4133 109.213 17.9978 109.025 17.5182C108.837 17.0387 108.742 16.4953 108.742 15.8879C108.742 15.2805 108.837 14.737 109.025 14.2575C109.213 13.778 109.496 13.3944 109.81 13.0427C110.124 12.723 110.5 12.4353 110.94 12.3074C111.348 12.1156 111.787 12.0517 112.258 12.0517C112.729 12.0517 113.137 12.1156 113.577 12.3074C114.016 12.4992 114.393 12.755 114.707 13.0427C115.021 13.3624 115.303 13.778 115.46 14.2575C115.648 14.737 115.743 15.2805 115.743 15.8879C115.743 16.5272 115.68 17.0707 115.46 17.5182Z" fill="#004DD9"/>
<path d="M125.004 2.87695H121.457V22.6652H125.004V2.87695Z" fill="#004DD9"/>
<path d="M130.026 2.65332C129.712 2.65332 129.429 2.71726 129.147 2.84513C128.864 2.973 128.613 3.13284 128.425 3.32465C128.236 3.51646 128.048 3.80417 127.954 4.05991C127.828 4.34763 127.766 4.63534 127.766 4.95502C127.766 5.2747 127.828 5.59438 127.954 5.85012C128.08 6.13784 128.236 6.36161 128.425 6.58539C128.613 6.80917 128.896 6.96901 129.147 7.06491C129.429 7.19278 129.743 7.25672 130.026 7.25672C130.654 7.25672 131.187 7.03294 131.658 6.58539C132.129 6.13784 132.349 5.59438 132.349 4.92305C132.349 4.25172 132.129 3.74023 131.658 3.26071C131.219 2.8771 130.654 2.65332 130.026 2.65332Z" fill="#004DD9"/>
<path d="M131.815 9.14258H128.268V22.6651H131.815V9.14258Z" fill="#004DD9"/>
<path d="M145 10.1658C143.901 9.17483 142.332 8.69531 140.291 8.69531C137.843 8.69531 135.928 9.59042 134.515 11.4126L137.089 13.2348C137.937 12.1798 138.973 11.6683 140.197 11.6683C141.045 11.6683 141.704 11.8921 142.269 12.3716C142.834 12.8512 143.116 13.4266 143.116 14.1618V14.5455C142.771 14.3856 142.269 14.2577 141.735 14.0979C141.17 13.97 140.48 13.9061 139.569 13.9061C138.785 13.9061 138.063 14.002 137.403 14.2258C136.744 14.4176 136.148 14.7373 135.677 15.1529C135.206 15.5684 134.829 16.016 134.547 16.5914C134.264 17.1668 134.139 17.7742 134.139 18.4775C134.139 19.1489 134.264 19.7882 134.515 20.3636C134.766 20.9391 135.112 21.4186 135.583 21.8342C136.054 22.2498 136.556 22.5694 137.184 22.7932C137.78 23.017 138.439 23.1129 139.13 23.1129C140.04 23.1129 140.794 22.9211 141.39 22.5694C141.986 22.2178 142.489 21.7702 142.897 21.2587H143.116V21.5784C143.116 22.1858 143.587 22.6653 144.184 22.6653H146.632V14.5455C146.632 12.6274 146.099 11.1569 145 10.1658ZM142.897 18.3497C142.74 18.7333 142.52 19.053 142.238 19.3407C141.955 19.6284 141.641 19.8522 141.233 20.044C140.825 20.2358 140.385 20.2997 139.946 20.2997C139.35 20.2997 138.847 20.1399 138.439 19.8202C138 19.5005 137.78 19.053 137.78 18.5095C137.78 17.966 138 17.5185 138.471 17.1029C138.941 16.7193 139.601 16.5275 140.448 16.5275C140.982 16.5275 141.453 16.5914 141.892 16.7193C142.332 16.8472 142.74 17.007 143.179 17.1988C143.116 17.5824 143.054 17.966 142.897 18.3497Z" fill="#004DD9"/>
<path d="M23.7367 32H8.00984C3.70928 32 0.162109 28.4196 0.162109 24.008V7.99201C0.162109 3.61239 3.67789 0 8.00984 0H23.7367C28.0686 0 31.5844 3.58042 31.5844 7.99201V24.008C31.5844 28.4196 28.0686 32 23.7367 32ZM8.00984 2.36563C4.96492 2.36563 2.48504 4.89111 2.48504 7.99201V24.008C2.48504 27.1089 4.96492 29.6344 8.00984 29.6344H23.7367C26.7816 29.6344 29.2615 27.1089 29.2615 24.008V7.99201C29.2615 4.89111 26.7816 2.36563 23.7367 2.36563H8.00984Z" fill="#004DD9"/>
<path d="M108.523 27.8116V29.0903H107.832V28.387H105.195V25.1582H105.949V27.8116H107.33V25.1582H108.052V27.8116H108.523Z" fill="#004DD9"/>
<path d="M111.379 25.9255V28.419H110.689V28.1313C110.5 28.3231 110.249 28.451 109.935 28.451C109.715 28.451 109.496 28.3871 109.307 28.2912C109.119 28.1953 108.993 28.0354 108.868 27.8436C108.774 27.6518 108.711 27.428 108.711 27.1723C108.711 26.9165 108.774 26.6928 108.868 26.5009C108.962 26.3091 109.119 26.1813 109.307 26.0534C109.496 25.9575 109.715 25.8936 109.935 25.8936C110.249 25.8936 110.5 25.9895 110.657 26.2132V25.9575L111.379 25.9255ZM110.5 27.6838C110.626 27.5559 110.689 27.3961 110.689 27.2042C110.689 27.0124 110.626 26.8206 110.5 26.7247C110.375 26.5969 110.218 26.5329 110.061 26.5329C109.872 26.5329 109.747 26.5969 109.59 26.7247C109.464 26.8526 109.402 27.0124 109.402 27.2042C109.402 27.3961 109.464 27.5879 109.59 27.6838C109.715 27.8116 109.872 27.8756 110.061 27.8756C110.249 27.8436 110.406 27.7797 110.5 27.6838Z" fill="#004DD9"/>
<path d="M113.577 28.3873L113.043 27.6521L112.509 28.3873H111.725L112.666 27.1406L111.756 25.9258H112.541L113.074 26.6291L113.577 25.9258H114.361L113.451 27.1406L114.393 28.3873H113.577Z" fill="#004DD9"/>
<path d="M117.093 25.9262V28.4197H116.403V28.132C116.34 28.2279 116.214 28.3238 116.089 28.3558C115.963 28.4197 115.806 28.4197 115.649 28.4197C115.335 28.4197 115.053 28.3238 114.896 28.132C114.707 27.9402 114.613 27.6525 114.613 27.3009V25.8943H115.335V27.173C115.335 27.5566 115.492 27.7804 115.806 27.7804C115.994 27.7804 116.12 27.7165 116.214 27.5886C116.308 27.4927 116.371 27.3009 116.371 27.1091V25.8623L117.093 25.9262Z" fill="#004DD9"/>
<path d="M120.138 28.3873V26.9168L119.384 28.1635H119.133L118.411 26.9168V28.3873H117.752V25.9258H118.505L119.259 27.3643L120.106 25.9258H120.765V28.3873H120.138Z" fill="#004DD9"/>
<path d="M124.125 28.4193V29.3144H123.434V28.4193L122.398 25.9258H123.12L123.811 27.6201L124.502 25.9258H125.192L124.125 28.4193Z" fill="#004DD9"/>
<path d="M125.537 25.9258H126.228V26.8848H127.295V25.9258H127.986V28.3873H127.295V27.4602H126.228V28.3873H125.537V25.9258Z" fill="#004DD9"/>
<path d="M131.156 25.9258V27.9717C131.156 28.4513 131.031 28.7709 130.811 28.9627C130.591 29.1865 130.246 29.2824 129.807 29.2824C129.587 29.2824 129.336 29.2505 129.147 29.2185C128.959 29.1546 128.771 29.0586 128.614 28.9627L128.896 28.4513C128.99 28.5152 129.116 28.6111 129.273 28.6431C129.43 28.675 129.587 28.707 129.744 28.707C129.995 28.707 130.183 28.6431 130.277 28.5152C130.403 28.4193 130.466 28.2275 130.466 28.0037V27.9717C130.277 28.1635 130.026 28.2914 129.712 28.2914C129.493 28.2914 129.273 28.2275 129.116 28.1316C128.928 28.0357 128.802 27.9078 128.676 27.716C128.582 27.5242 128.52 27.3324 128.52 27.1086C128.52 26.8848 128.582 26.661 128.676 26.5012C128.771 26.3094 128.928 26.1815 129.116 26.0856C129.304 25.9897 129.493 25.9258 129.712 25.9258C130.058 25.9258 130.34 26.0537 130.529 26.2774V25.9577L131.156 25.9258ZM130.277 27.5242C130.403 27.4283 130.466 27.2684 130.466 27.0766C130.466 26.8848 130.403 26.757 130.277 26.6291C130.152 26.5332 129.995 26.4373 129.807 26.4373C129.618 26.4373 129.493 26.5012 129.336 26.6291C129.21 26.725 129.147 26.8848 129.147 27.0766C129.147 27.2684 129.21 27.3963 129.336 27.5242C129.461 27.6201 129.618 27.716 129.807 27.716C129.995 27.684 130.152 27.6521 130.277 27.5242Z" fill="#004DD9"/>
<path d="M133.354 26.0543C133.542 26.1502 133.731 26.31 133.825 26.5338C133.95 26.7256 134.013 26.9494 134.013 27.2051C134.013 27.4609 133.95 27.6846 133.825 27.8765C133.699 28.0683 133.542 28.2281 133.354 28.356C133.166 28.4838 132.915 28.5158 132.632 28.5158C132.412 28.5158 132.161 28.4519 132.004 28.3879C131.816 28.324 131.659 28.1961 131.533 28.0683L131.941 27.6846C132.13 27.8765 132.35 27.9724 132.601 27.9724C132.789 27.9724 132.915 27.9084 133.072 27.8445C133.228 27.7806 133.26 27.6527 133.323 27.4928H132.287V27.0133H133.291C133.228 26.8535 133.166 26.7576 133.04 26.6617C132.915 26.5977 132.758 26.5338 132.569 26.5338C132.318 26.5338 132.098 26.6297 131.91 26.8215L131.502 26.4379C131.628 26.2781 131.784 26.1821 131.973 26.1182C132.161 26.0543 132.381 25.9903 132.601 25.9903C132.915 25.8625 133.134 25.9584 133.354 26.0543Z" fill="#004DD9"/>
<path d="M134.923 28.2594C134.735 28.1635 134.546 28.0036 134.452 27.7799C134.326 27.5881 134.264 27.3643 134.264 27.1085C134.264 26.8528 134.326 26.629 134.452 26.4372C134.578 26.2454 134.735 26.1175 134.923 25.9577C135.111 25.8618 135.362 25.7979 135.645 25.7979C135.896 25.7979 136.116 25.8618 136.335 25.9577C136.524 26.0536 136.649 26.2134 136.775 26.4372L136.21 26.7569C136.084 26.5331 135.896 26.4372 135.645 26.4372C135.457 26.4372 135.331 26.5012 135.174 26.629C135.048 26.7569 134.986 26.9167 134.986 27.1085C134.986 27.3004 135.048 27.4922 135.174 27.5881C135.3 27.7159 135.457 27.7799 135.645 27.7799C135.896 27.7799 136.084 27.684 136.21 27.4602L136.775 27.7799C136.712 27.9717 136.555 28.1315 136.335 28.2594C136.147 28.3553 135.927 28.4192 135.645 28.4192C135.362 28.4512 135.143 28.3873 134.923 28.2594Z" fill="#004DD9"/>
<path d="M140.982 26.1498C141.171 26.3416 141.265 26.6293 141.265 26.9809V28.3875H140.543V27.0768C140.543 26.885 140.48 26.7572 140.417 26.6293C140.355 26.5334 140.229 26.4694 140.103 26.4694C139.915 26.4694 139.789 26.5334 139.695 26.6293C139.601 26.7252 139.538 26.917 139.538 27.1088V28.3556H138.816V27.0449C138.816 26.6612 138.659 26.4375 138.345 26.4375C138.189 26.4375 138.032 26.5014 137.969 26.5973C137.875 26.6932 137.812 26.885 137.812 27.0768V28.3236H137.09V25.8301H137.78V26.1178C137.875 26.0219 137.969 25.926 138.094 25.894C138.22 25.8301 138.377 25.8301 138.534 25.8301C138.722 25.8301 138.848 25.862 139.005 25.926C139.162 25.9899 139.256 26.1178 139.319 26.2457C139.413 26.1178 139.538 26.0219 139.695 25.926C139.852 25.862 140.009 25.8301 140.198 25.8301C140.606 25.894 140.825 25.958 140.982 26.1498Z" fill="#004DD9"/>
<path d="M143.43 26.0543C143.618 26.1502 143.807 26.31 143.901 26.5338C144.026 26.7256 144.089 26.9494 144.089 27.2051C144.089 27.4609 144.026 27.6846 143.901 27.8765C143.775 28.0683 143.618 28.2281 143.43 28.356C143.242 28.4519 142.991 28.5158 142.708 28.5158C142.488 28.5158 142.237 28.4519 142.08 28.3879C141.892 28.324 141.735 28.1961 141.609 28.0683L142.017 27.6846C142.206 27.8765 142.426 27.9724 142.677 27.9724C142.865 27.9724 142.991 27.9084 143.148 27.8445C143.273 27.7806 143.336 27.6527 143.399 27.4928H142.394V27.0133H143.399C143.336 26.8535 143.273 26.7576 143.148 26.6617C143.022 26.5977 142.865 26.5338 142.677 26.5338C142.426 26.5338 142.206 26.6297 142.017 26.8215L141.609 26.4379C141.735 26.2781 141.892 26.1821 142.08 26.1182C142.269 26.0543 142.488 25.9903 142.708 25.9903C142.959 25.8625 143.21 25.9584 143.43 26.0543Z" fill="#004DD9"/>
<path d="M144.561 25.9258H145.251V26.8848H146.318V25.9258H147.04V28.3873H146.318V27.4602H145.251V28.3873H144.561V25.9258Z" fill="#004DD9"/>
<path d="M153.883 14.1147C153.883 11.5752 153.883 10.3054 154.733 9.51648C155.584 8.72754 156.952 8.72754 159.689 8.72754H168.69C171.427 8.72754 172.795 8.72754 173.646 9.51648C174.496 10.3054 174.496 11.5752 174.496 14.1147V17.8858C174.496 20.4253 174.496 21.6951 173.646 22.4841C172.795 23.273 171.427 23.273 168.69 23.273H159.689C156.952 23.273 155.584 23.273 154.733 22.4841C153.883 21.6951 153.883 20.4253 153.883 17.8858V14.1147Z" fill="#F0162D"/>
<path d="M159.206 20.0267C158.833 20.0267 158.481 19.9528 158.149 19.8049C157.817 19.6571 157.529 19.4476 157.283 19.1765C157.041 18.9054 156.867 18.585 156.76 18.2153L157.968 17.8826C158.054 18.1854 158.211 18.4195 158.439 18.585C158.671 18.747 158.925 18.8262 159.201 18.8227C159.447 18.8227 159.666 18.7646 159.86 18.6484C160.053 18.5322 160.205 18.3755 160.316 18.1784C160.426 17.9777 160.482 17.7541 160.482 17.5077C160.482 17.131 160.362 16.8159 160.124 16.5624C159.886 16.3089 159.578 16.1822 159.201 16.1822C159.087 16.1822 158.975 16.198 158.864 16.2297C158.757 16.2614 158.654 16.3054 158.553 16.3617L157.983 15.3583L160.492 13.172L160.601 13.4783H157.05V12.2795H161.627V13.4836L159.611 15.4587L159.6 15.0837C160.053 15.1154 160.438 15.2439 160.756 15.4692C161.078 15.6946 161.323 15.985 161.492 16.3406C161.665 16.6962 161.752 17.0852 161.752 17.5077C161.752 17.9865 161.636 18.416 161.404 18.7963C161.176 19.1765 160.869 19.4775 160.482 19.6993C160.098 19.9176 159.673 20.0267 159.206 20.0267Z" fill="white"/>
<path d="M163.302 19.8841V18.5797H164.583V19.8841H163.302Z" fill="white"/>
<path d="M168.929 20.0426C168.4 20.0426 167.933 19.9281 167.529 19.6993C167.125 19.4669 166.809 19.1448 166.58 18.7329C166.356 18.321 166.244 17.8457 166.244 17.307V14.8566C166.244 14.318 166.356 13.8427 166.58 13.4308C166.809 13.0189 167.125 12.6985 167.529 12.4696C167.933 12.2373 168.4 12.1211 168.929 12.1211C169.457 12.1211 169.922 12.2373 170.323 12.4696C170.727 12.6985 171.044 13.0189 171.272 13.4308C171.5 13.8427 171.614 14.318 171.614 14.8566V17.307C171.614 17.8457 171.5 18.321 171.272 18.7329C171.044 19.1448 170.727 19.4669 170.323 19.6993C169.922 19.9281 169.457 20.0426 168.929 20.0426ZM168.929 18.8332C169.191 18.8332 169.43 18.7698 169.644 18.6431C169.858 18.5128 170.028 18.3403 170.152 18.1256C170.276 17.9073 170.339 17.6644 170.339 17.3968V14.7616C170.339 14.4905 170.276 14.2476 170.152 14.0328C170.028 13.8145 169.858 13.642 169.644 13.5153C169.43 13.385 169.191 13.3199 168.929 13.3199C168.666 13.3199 168.428 13.385 168.213 13.5153C167.999 13.642 167.83 13.8145 167.705 14.0328C167.581 14.2476 167.519 14.4905 167.519 14.7616V17.3968C167.519 17.6644 167.581 17.9073 167.705 18.1256C167.83 18.3403 167.999 18.5128 168.213 18.6431C168.428 18.7698 168.666 18.8332 168.929 18.8332Z" fill="white"/>
</svg>
